<svg width="684" height="156" viewBox="0 0 684 156" fill="none" xmlns="http://www.w3.org/2000/svg">
<g clip-path="url(#clip0_1_16)">
<path d="M140.34 91.6757H111.358L148.358 42.6112C149.164 41.5339 148.94 39.9627 147.865 39.1547C147.462 38.8405 146.924 38.6609 146.387 38.6609H92.858C88.1546 38.6609 84.3024 42.5214 84.3024 47.2349C84.3024 51.9483 88.1546 55.8088 92.858 55.8088H116.912L79.7782 104.918C78.9271 105.996 79.1511 107.522 80.2261 108.375C80.674 108.734 81.2116 108.913 81.7491 108.868H140.295C144.998 108.644 148.627 104.604 148.403 99.8456C148.179 95.4464 144.685 91.945 140.295 91.7206V91.6757H140.34ZM327.4 38.6609C322.696 38.6609 318.844 42.5214 318.844 47.2349V76.0092L272.616 39.2445C271.586 38.3916 270.018 38.5263 269.167 39.6036C268.809 40.0525 268.63 40.5912 268.63 41.1747V100.295C268.63 105.008 272.482 108.868 277.185 108.868C281.889 108.868 285.741 105.053 285.741 100.295V71.5202L331.969 108.33C333.044 109.183 334.611 109.003 335.462 107.926C335.821 107.477 336 106.938 336 106.4V47.2349C335.955 42.4765 332.148 38.6609 327.4 38.6609ZM205.067 93.2917C185.492 93.2917 170.889 82.9671 170.889 73.7198C170.889 64.4725 185.537 54.1479 205.067 54.1479C224.642 54.1479 239.245 64.4725 239.245 73.7198C239.245 82.9671 224.687 93.2917 205.067 93.2917ZM205.067 37C176.757 37 153.778 53.4296 153.778 73.7198C153.778 94.01 176.757 110.44 205.067 110.44C233.377 110.44 256.356 94.01 256.356 73.7198C256.356 53.4296 233.377 37 205.067 37ZM36.6863 93.3366C25.8909 93.3366 17.1113 84.5831 17.1113 73.7647C17.1113 62.9463 25.8462 54.1479 36.6415 54.1479C47.4369 54.1479 56.2165 62.9014 56.2165 73.7198V73.7647C56.2165 84.5382 47.4817 93.2917 36.6863 93.3366ZM36.6863 37C16.4394 37 0.044794 53.4296 0 73.7198C0 94.01 16.3946 110.44 36.6415 110.485C56.8884 110.485 73.283 94.0549 73.3278 73.7647V73.7198C73.283 53.4296 56.8884 37 36.6863 37Z" fill="#009688"/>
</g>
<path d="M376.032 78.8C378.72 78.8 380.768 78.192 382.176 76.976C383.648 75.696 384.384 73.776 384.384 71.216C384.384 68.784 383.616 66.928 382.08 65.648C380.608 64.304 378.432 63.632 375.552 63.632C374.528 63.632 373.664 63.664 372.96 63.728C372.32 63.728 371.648 63.792 370.944 63.92V78.8H376.032ZM371.04 109.616C370.336 109.808 369.216 110 367.68 110.192C366.208 110.384 364.736 110.48 363.264 110.48C361.792 110.48 360.48 110.352 359.328 110.096C358.24 109.904 357.312 109.52 356.544 108.944C355.776 108.368 355.2 107.568 354.816 106.544C354.432 105.52 354.24 104.176 354.24 102.512V57.296C354.24 55.952 354.592 54.928 355.296 54.224C356.064 53.456 357.088 52.848 358.368 52.4C360.544 51.632 363.008 51.088 365.76 50.768C368.576 50.384 371.392 50.192 374.208 50.192C383.04 50.192 389.792 52.08 394.464 55.856C399.136 59.632 401.472 64.752 401.472 71.216C401.472 74.352 400.96 77.2 399.936 79.76C398.976 82.256 397.504 84.432 395.52 86.288C393.6 88.08 391.136 89.488 388.128 90.512C385.184 91.472 381.76 91.952 377.856 91.952H371.04V109.616ZM461.573 88.496C461.573 91.952 460.965 95.12 459.749 98C458.597 100.816 456.901 103.248 454.661 105.296C452.421 107.28 449.701 108.816 446.501 109.904C443.301 110.992 439.685 111.536 435.653 111.536C431.621 111.536 428.005 110.992 424.805 109.904C421.605 108.816 418.885 107.28 416.645 105.296C414.405 103.248 412.677 100.816 411.461 98C410.309 95.12 409.733 91.952 409.733 88.496V51.824C410.437 51.696 411.557 51.536 413.093 51.344C414.629 51.088 416.101 50.96 417.509 50.96C418.981 50.96 420.261 51.088 421.349 51.344C422.501 51.536 423.461 51.92 424.229 52.496C424.997 53.072 425.573 53.872 425.957 54.896C426.341 55.92 426.533 57.264 426.533 58.928V88.208C426.533 91.28 427.365 93.68 429.029 95.408C430.757 97.136 432.965 98 435.653 98C438.405 98 440.613 97.136 442.277 95.408C443.941 93.68 444.773 91.28 444.773 88.208V51.824C445.477 51.696 446.597 51.536 448.133 51.344C449.669 51.088 451.141 50.96 452.549 50.96C454.021 50.96 455.301 51.088 456.389 51.344C457.541 51.536 458.501 51.92 459.269 52.496C460.037 53.072 460.613 53.872 460.997 54.896C461.381 55.92 461.573 57.264 461.573 58.928V88.496ZM482.699 110.288C479.947 110.288 477.771 109.488 476.171 107.888C474.571 106.288 473.771 104.112 473.771 101.36V51.728C474.475 51.6 475.595 51.44 477.131 51.248C478.667 50.992 480.139 50.864 481.547 50.864C483.019 50.864 484.299 50.992 485.387 51.248C486.539 51.44 487.499 51.824 488.267 52.4C489.035 52.976 489.611 53.776 489.995 54.8C490.379 55.824 490.571 57.168 490.571 58.832V96.752H512.555C513.003 97.456 513.419 98.416 513.803 99.632C514.187 100.784 514.379 102 514.379 103.28C514.379 105.84 513.835 107.664 512.747 108.752C511.659 109.776 510.219 110.288 508.427 110.288H482.699ZM531.918 110.288C529.166 110.288 526.99 109.488 525.39 107.888C523.79 106.288 522.99 104.112 522.99 101.36V51.728C523.694 51.6 524.814 51.44 526.35 51.248C527.886 50.992 529.358 50.864 530.766 50.864C532.238 50.864 533.518 50.992 534.606 51.248C535.758 51.44 536.718 51.824 537.486 52.4C538.254 52.976 538.83 53.776 539.214 54.8C539.598 55.824 539.79 57.168 539.79 58.832V96.752H561.774C562.222 97.456 562.638 98.416 563.022 99.632C563.406 100.784 563.598 102 563.598 103.28C563.598 105.84 563.054 107.664 561.966 108.752C560.878 109.776 559.438 110.288 557.646 110.288H531.918ZM572.209 60.752C572.209 58 573.009 55.824 574.609 54.224C576.209 52.624 578.385 51.824 581.137 51.824H612.817C613.265 52.528 613.649 53.456 613.969 54.608C614.353 55.76 614.545 56.976 614.545 58.256C614.545 60.688 614.001 62.416 612.913 63.44C611.889 64.464 610.513 64.976 608.785 64.976H588.529V73.904H610.129C610.577 74.608 610.961 75.536 611.281 76.688C611.665 77.776 611.857 78.96 611.857 80.24C611.857 82.672 611.345 84.4 610.321 85.424C609.297 86.448 607.921 86.96 606.193 86.96H588.529V97.04H613.201C613.649 97.744 614.033 98.672 614.353 99.824C614.737 100.976 614.929 102.192 614.929 103.472C614.929 105.904 614.385 107.664 613.297 108.752C612.273 109.776 610.897 110.288 609.169 110.288H581.137C578.385 110.288 576.209 109.488 574.609 107.888C573.009 106.288 572.209 104.112 572.209 101.36V60.752ZM641.507 91.184V109.616C640.803 109.808 639.683 110 638.147 110.192C636.675 110.384 635.203 110.48 633.731 110.48C632.259 110.48 630.947 110.352 629.795 110.096C628.707 109.904 627.779 109.52 627.011 108.944C626.307 108.368 625.763 107.568 625.379 106.544C624.995 105.52 624.803 104.176 624.803 102.512V57.296C624.803 55.952 625.155 54.928 625.859 54.224C626.627 53.456 627.651 52.848 628.931 52.4C631.107 51.632 633.635 51.088 636.515 50.768C639.395 50.384 642.467 50.192 645.731 50.192C654.563 50.192 661.219 52.048 665.699 55.76C670.179 59.472 672.419 64.496 672.419 70.832C672.419 74.8 671.395 78.192 669.347 81.008C667.299 83.824 664.867 86 662.051 87.536C664.355 90.672 666.627 93.616 668.867 96.368C671.107 99.12 672.867 101.616 674.147 103.856C673.507 106.096 672.323 107.824 670.595 109.04C668.931 110.192 667.043 110.768 664.931 110.768C663.523 110.768 662.307 110.608 661.283 110.288C660.259 109.968 659.363 109.52 658.595 108.944C657.827 108.368 657.123 107.664 656.483 106.832C655.843 106 655.235 105.104 654.659 104.144L646.595 91.184H641.507ZM647.555 78.416C649.987 78.416 651.907 77.808 653.315 76.592C654.723 75.312 655.427 73.456 655.427 71.024C655.427 68.592 654.627 66.768 653.027 65.552C651.491 64.272 649.027 63.632 645.635 63.632C644.675 63.632 643.907 63.664 643.331 63.728C642.755 63.792 642.115 63.888 641.411 64.016V78.416H647.555Z" fill="#009688"/>
<defs>
<clipPath id="clip0_1_16">
<rect width="336" height="148" fill="white"/>
</clipPath>
</defs>
</svg>
